<svg width="100%" viewBox="0 0 680 258" role="img" xmlns="http://www.w3.org/2000/svg">
  <title>RPG Character Profile v3 - Abdenour Akrour</title>
  <desc>Carte RPG avec footer corrigé</desc>
  <defs>
    <pattern id="scan2" x="0" y="0" width="2" height="3" patternUnits="userSpaceOnUse">
      <rect x="0" y="0" width="2" height="1" fill="#ffffff"/>
    </pattern>
    <pattern id="dots" x="0" y="0" width="8" height="8" patternUnits="userSpaceOnUse">
      <rect x="3" y="3" width="1" height="1" fill="#ffffff" opacity="0.06"/>
    </pattern>
  </defs>

  <rect width="680" height="258" fill="#12111f"/>
  <rect width="680" height="258" fill="url(#dots)"/>
  <rect width="680" height="258" fill="url(#scan2)" opacity="0.025"/>

  <rect x="5" y="5" width="670" height="248" fill="none" stroke="#d4a843" stroke-width="2"/>
  <rect x="9" y="9" width="662" height="240" fill="none" stroke="#6b5020" stroke-width="1"/>

  <polygon points="5,5 21,5 5,21" fill="#12111f"/>
  <polygon points="675,5 659,5 675,21" fill="#12111f"/>
  <polygon points="5,253 21,253 5,237" fill="#12111f"/>
  <polygon points="675,253 659,253 675,237" fill="#12111f"/>
  <polygon points="5,13 13,5 21,13 13,21" fill="#d4a843"/>
  <polygon points="663,13 671,5 679,13 671,21" fill="#d4a843" transform="translate(-4,0)"/>
  <polygon points="5,241 13,233 21,241 13,249" fill="#d4a843"/>
  <polygon points="659,241 667,233 675,241 667,249" fill="#d4a843"/>

  <rect x="9" y="9" width="662" height="24" fill="#0c0b18"/>
  <text x="340" y="25" font-family="'Courier New',monospace" font-size="11" fill="#d4a843" text-anchor="middle" letter-spacing="6" font-weight="700">★  CHARACTER  PROFILE  ★</text>
  <line x1="9" y1="33" x2="671" y2="33" stroke="#6b5020" stroke-width="1"/>

  <rect x="18" y="40" width="108" height="108" fill="#0c0b18" stroke="#6b5020" stroke-width="1"/>
  <rect x="20" y="42" width="104" height="104" fill="#0c0b18" stroke="#2a2040" stroke-width="0.5"/>

  <rect x="51" y="108" width="14" height="22" fill="#2d2b50"/>
  <rect x="67" y="108" width="14" height="22" fill="#2d2b50"/>
  <rect x="49" y="126" width="16" height="6" fill="#1a1830" rx="1"/>
  <rect x="65" y="126" width="16" height="6" fill="#1a1830" rx="1"/>
  <rect x="46" y="82" width="40" height="30" fill="#1e2a4a"/>
  <rect x="58" y="82" width="8" height="14" fill="#0c0b18"/>
  <rect x="42" y="80" width="8" height="8" fill="#d4a843" rx="1"/>
  <rect x="82" y="80" width="8" height="8" fill="#d4a843" rx="1"/>
  <rect x="36" y="84" width="10" height="24" fill="#1e2a4a"/>
  <rect x="86" y="84" width="10" height="24" fill="#1e2a4a"/>
  <rect x="34" y="104" width="12" height="8" fill="#c49a6c" rx="2"/>
  <rect x="86" y="104" width="12" height="8" fill="#c49a6c" rx="2"/>
  <rect x="96" y="100" width="14" height="9" fill="#333" rx="3"/>
  <rect x="97" y="102" width="3" height="3" fill="#d4a843" rx="1"/>
  <rect x="105" y="101" width="2" height="2" fill="#7f77dd"/>
  <rect x="108" y="103" width="2" height="2" fill="#1d9e75"/>
  <rect x="54" y="52" width="24" height="30" fill="#c49a6c"/>
  <rect x="52" y="48" width="28" height="10" fill="#2a1a0a"/>
  <rect x="50" y="52" width="5" height="14" fill="#2a1a0a"/>
  <rect x="59" y="63" width="5" height="5" fill="#1a1a2e"/>
  <rect x="68" y="63" width="5" height="5" fill="#1a1a2e"/>
  <rect x="60" y="64" width="2" height="2" fill="#7f77dd"/>
  <rect x="69" y="64" width="2" height="2" fill="#7f77dd"/>
  <rect x="59" y="61" width="5" height="2" fill="#2a1a0a"/>
  <rect x="68" y="61" width="5" height="2" fill="#2a1a0a"/>
  <rect x="65" y="70" width="3" height="3" fill="#b08050" opacity="0.6"/>
  <rect x="61" y="75" width="10" height="2" fill="#2a1a0a"/>
  <rect x="63" y="77" width="6" height="1" fill="#a06040" opacity="0.5"/>
  <rect x="59" y="84" width="14" height="8" rx="1" fill="#d4a843"/>
  <text x="66" y="91" font-family="monospace" font-size="6" fill="#0c0b18" text-anchor="middle" font-weight="700">DEV</text>

  <text x="18" y="160" font-family="monospace" font-size="8" fill="#888">HP</text>
  <rect x="32" y="152" width="94" height="7" rx="1" fill="#1a0a0a" stroke="#4a1515" stroke-width="0.5"/>
  <rect x="32" y="152" width="80" height="7" rx="1" fill="#c0392b"/>
  <rect x="32" y="152" width="80" height="3" rx="1" fill="#e74c3c" opacity="0.5"/>
  <text x="80" y="159" font-family="monospace" font-size="7" fill="#fff" text-anchor="middle">80 / 100</text>

  <text x="18" y="172" font-family="monospace" font-size="8" fill="#888">MP</text>
  <rect x="32" y="164" width="94" height="7" rx="1" fill="#0a0a1a" stroke="#151545" stroke-width="0.5"/>
  <rect x="32" y="164" width="70" height="7" rx="1" fill="#2980b9"/>
  <rect x="32" y="164" width="70" height="3" rx="1" fill="#3498db" opacity="0.5"/>
  <text x="80" y="171" font-family="monospace" font-size="7" fill="#fff" text-anchor="middle">70 / 100</text>

  <text x="18" y="184" font-family="monospace" font-size="8" fill="#888">XP</text>
  <rect x="32" y="176" width="94" height="7" rx="1" fill="#0a0a0a" stroke="#3a3010" stroke-width="0.5"/>
  <rect x="32" y="176" width="60" height="7" rx="1" fill="#d4a843"/>
  <rect x="32" y="176" width="60" height="3" rx="1" fill="#f0c060" opacity="0.4"/>
  <text x="80" y="183" font-family="monospace" font-size="7" fill="#0c0b18" text-anchor="middle" font-weight="700">LVL 22</text>

  <rect x="18" y="190" width="108" height="14" fill="#0c0b18" stroke="#6b5020" stroke-width="0.5"/>
  <text x="72" y="200" font-family="monospace" font-size="8" fill="#d4a843" text-anchor="middle">📍 Algeria  ·  Active</text>

  <line x1="134" y1="33" x2="134" y2="231" stroke="#6b5020" stroke-width="1"/>

  <text x="146" y="57" font-family="'Courier New',monospace" font-size="22" fill="#ffffff" font-weight="700" letter-spacing="0.5">ABDENOUR</text>
  <text x="146" y="78" font-family="'Courier New',monospace" font-size="22" fill="#d4a843" font-weight="700" letter-spacing="0.5">AKROUR</text>

  <rect x="146" y="84" width="68" height="14" rx="2" fill="#14102a" stroke="#534AB7" stroke-width="0.75"/>
  <text x="180" y="95" font-family="monospace" font-size="9" fill="#7f77dd" text-anchor="middle">◈ Engineer</text>
  <rect x="220" y="84" width="72" height="14" rx="2" fill="#091a10" stroke="#1d9e75" stroke-width="0.75"/>
  <text x="256" y="95" font-family="monospace" font-size="9" fill="#1d9e75" text-anchor="middle">⚔ Game Dev</text>
  <rect x="298" y="84" width="64" height="14" rx="2" fill="#1a120a" stroke="#d4a843" stroke-width="0.75"/>
  <text x="330" y="95" font-family="monospace" font-size="9" fill="#d4a843" text-anchor="middle">✦ Designer</text>

  <line x1="146" y1="104" x2="415" y2="104" stroke="#6b5020" stroke-width="0.5" stroke-dasharray="3,3"/>
  <text x="146" y="115" font-family="monospace" font-size="8" fill="#6b5020" letter-spacing="2">▸ BASE STATS</text>

  <text x="146" y="132" font-family="monospace" font-size="9" fill="#555" letter-spacing="1">COD</text>
  <rect x="178" y="123" width="110" height="8" rx="1" fill="#0c0b18" stroke="#222" stroke-width="0.5"/>
  <rect x="178" y="123" width="99" height="8" rx="1" fill="#534AB7"/>
  <rect x="178" y="123" width="99" height="4" rx="1" fill="#7f77dd" opacity="0.3"/>
  <text x="295" y="131" font-family="monospace" font-size="8" fill="#7f77dd">90</text>
  <text x="312" y="131" font-family="monospace" font-size="8" fill="#d4a843">★★★★★</text>

  <text x="146" y="148" font-family="monospace" font-size="9" fill="#555" letter-spacing="1">GAM</text>
  <rect x="178" y="139" width="110" height="8" rx="1" fill="#0c0b18" stroke="#222" stroke-width="0.5"/>
  <rect x="178" y="139" width="86" height="8" rx="1" fill="#0f6e56"/>
  <rect x="178" y="139" width="86" height="4" rx="1" fill="#1d9e75" opacity="0.3"/>
  <text x="295" y="147" font-family="monospace" font-size="8" fill="#1d9e75">78</text>
  <text x="312" y="147" font-family="monospace" font-size="8" fill="#d4a843">★★★★</text>
  <text x="348" y="147" font-family="monospace" font-size="8" fill="#333">★</text>

  <text x="146" y="164" font-family="monospace" font-size="9" fill="#555" letter-spacing="1">DES</text>
  <rect x="178" y="155" width="110" height="8" rx="1" fill="#0c0b18" stroke="#222" stroke-width="0.5"/>
  <rect x="178" y="155" width="90" height="8" rx="1" fill="#854f0b"/>
  <rect x="178" y="155" width="90" height="4" rx="1" fill="#d4a843" opacity="0.3"/>
  <text x="295" y="163" font-family="monospace" font-size="8" fill="#d4a843">82</text>
  <text x="312" y="163" font-family="monospace" font-size="8" fill="#d4a843">★★★★</text>
  <text x="348" y="163" font-family="monospace" font-size="8" fill="#333">★</text>

  <text x="146" y="180" font-family="monospace" font-size="9" fill="#555" letter-spacing="1">3D </text>
  <rect x="178" y="171" width="110" height="8" rx="1" fill="#0c0b18" stroke="#222" stroke-width="0.5"/>
  <rect x="178" y="171" width="77" height="8" rx="1" fill="#7a1e3d"/>
  <rect x="178" y="171" width="77" height="4" rx="1" fill="#d4537e" opacity="0.3"/>
  <text x="295" y="179" font-family="monospace" font-size="8" fill="#d4537e">70</text>
  <text x="312" y="179" font-family="monospace" font-size="8" fill="#d4a843">★★★</text>
  <text x="336" y="179" font-family="monospace" font-size="8" fill="#333">★★</text>

  <text x="146" y="196" font-family="monospace" font-size="9" fill="#555" letter-spacing="1">OOP</text>
  <rect x="178" y="187" width="110" height="8" rx="1" fill="#0c0b18" stroke="#222" stroke-width="0.5"/>
  <rect x="178" y="187" width="95" height="8" rx="1" fill="#185fa5"/>
  <rect x="178" y="187" width="95" height="4" rx="1" fill="#378add" opacity="0.3"/>
  <text x="295" y="195" font-family="monospace" font-size="8" fill="#378add">86</text>
  <text x="312" y="195" font-family="monospace" font-size="8" fill="#d4a843">★★★★</text>
  <text x="348" y="195" font-family="monospace" font-size="8" fill="#333">★</text>

  <line x1="420" y1="33" x2="420" y2="231" stroke="#6b5020" stroke-width="1"/>

  <text x="432" y="50" font-family="monospace" font-size="8" fill="#d4a843" letter-spacing="2">▸ EQUIPPED</text>
  <line x1="432" y1="54" x2="665" y2="54" stroke="#6b5020" stroke-width="0.5"/>

  <rect x="432" y="58" width="5" height="28" rx="1" fill="#d4a843"/>
  <text x="443" y="70" font-family="monospace" font-size="9" fill="#fff">Unity  <tspan fill="#888">+</tspan> <tspan fill="#7f77dd">C#</tspan></text>
  <text x="443" y="82" font-family="monospace" font-size="7" fill="#d4a843">⚙ Engine principale</text>

  <rect x="432" y="90" width="5" height="28" rx="1" fill="#d4537e"/>
  <text x="443" y="102" font-family="monospace" font-size="9" fill="#fff">Unreal <tspan fill="#888">+</tspan> <tspan fill="#378add">C++</tspan></text>
  <text x="443" y="114" font-family="monospace" font-size="7" fill="#d4537e">⚔ Arme secondaire</text>

  <rect x="432" y="122" width="5" height="28" rx="1" fill="#1d9e75"/>
  <text x="443" y="134" font-family="monospace" font-size="9" fill="#fff">React  <tspan fill="#888">+</tspan> <tspan fill="#1d9e75">Next.js</tspan></text>
  <text x="443" y="146" font-family="monospace" font-size="7" fill="#1d9e75">🛡 Bouclier web</text>

  <rect x="432" y="154" width="5" height="28" rx="1" fill="#378add"/>
  <text x="443" y="166" font-family="monospace" font-size="9" fill="#fff">Blender <tspan fill="#888">+</tspan> <tspan fill="#888">Aseprite</tspan></text>
  <text x="443" y="178" font-family="monospace" font-size="7" fill="#378add">✦ Forge 3D / Pixel</text>

  <line x1="432" y1="192" x2="665" y2="192" stroke="#6b5020" stroke-width="0.5" stroke-dasharray="2,3"/>
  <text x="432" y="204" font-family="monospace" font-size="8" fill="#d4a843" letter-spacing="2">▸ ACHIEVEMENTS</text>

  <rect x="432" y="210" width="36" height="16" rx="2" fill="#1a120a" stroke="#d4a843" stroke-width="0.75"/>
  <text x="450" y="221" font-family="monospace" font-size="7" fill="#d4a843" text-anchor="middle">OOP</text>

  <rect x="474" y="210" width="44" height="16" rx="2" fill="#091a10" stroke="#1d9e75" stroke-width="0.75"/>
  <text x="496" y="221" font-family="monospace" font-size="7" fill="#1d9e75" text-anchor="middle">GAME DEV</text>

  <rect x="524" y="210" width="36" height="16" rx="2" fill="#14102a" stroke="#7f77dd" stroke-width="0.75"/>
  <text x="542" y="221" font-family="monospace" font-size="7" fill="#7f77dd" text-anchor="middle">3D ART</text>

  <rect x="566" y="210" width="44" height="16" rx="2" fill="#0a0a1a" stroke="#378add" stroke-width="0.75"/>
  <text x="588" y="221" font-family="monospace" font-size="7" fill="#378add" text-anchor="middle">FULLSTACK</text>

  <rect x="616" y="210" width="44" height="16" rx="2" fill="#1a0a0a" stroke="#d4537e" stroke-width="0.75"/>
  <text x="638" y="221" font-family="monospace" font-size="7" fill="#d4537e" text-anchor="middle">CREATIVE</text>

  <line x1="9" y1="231" x2="671" y2="231" stroke="#6b5020" stroke-width="1"/>
  <rect x="9" y="231" width="662" height="18" fill="#0c0b18"/>
  <text x="22" y="243" font-family="monospace" font-size="8" fill="#555">▶ PRESS START</text>
  <rect x="92" y="236" width="6" height="10" fill="#d4a843" rx="1">
    <animate attributeName="opacity" values="1;0;1" dur="1.1s" repeatCount="indefinite"/>
  </rect>
  <text x="340" y="243" font-family="monospace" font-size="8" fill="#444" text-anchor="middle">SAVE SLOT 01  ·  PLAYTIME  22Y 00D</text>
  <text x="658" y="243" font-family="monospace" font-size="8" fill="#555" text-anchor="end">2025</text>
</svg>
